<svg width="114" height="134" viewBox="0 0 114 134" fill="none" xmlns="http://www.w3.org/2000/svg">
<path d="M91.3107 45.75H82.8914L80.5514 39.9C78.1468 33.8855 72.4078 30 65.9292 30H48.0698C41.5926 30 35.8523 33.8855 33.4462 39.9L31.1062 45.75H22.6884C21.5901 45.75 20.7843 46.7822 21.0515 47.8467L21.8953 51.2217C22.0823 51.9727 22.7573 52.5 23.5321 52.5H26.3545C24.4659 54.1495 23.2495 56.5472 23.2495 59.25V66C23.2495 68.2669 24.1157 70.313 25.4995 71.8964V79.5C25.4995 81.9848 27.5147 84 29.9995 84H34.4995C36.9844 84 38.9995 81.9848 38.9995 79.5V75H74.9996V79.5C74.9996 81.9848 77.0147 84 79.4996 84H83.9996C86.4844 84 88.4996 81.9848 88.4996 79.5V71.8964C89.8833 70.3144 90.7496 68.2683 90.7496 66V59.25C90.7496 56.5472 89.5332 54.1495 87.646 52.5H90.4683C91.2432 52.5 91.9182 51.9727 92.1052 51.2217L92.949 47.8467C93.2147 46.7822 92.409 45.75 91.3107 45.75ZM41.8022 43.2427C42.8273 40.6805 45.3094 39 48.0698 39H65.9292C68.6897 39 71.1717 40.6805 72.1969 43.2427L74.9996 50.25H38.9995L41.8022 43.2427ZM34.4995 65.9719C31.7995 65.9719 29.9995 64.1775 29.9995 61.4859C29.9995 58.7944 31.7995 57 34.4995 57C37.1995 57 41.2495 61.0373 41.2495 63.7289C41.2495 66.4205 37.1995 65.9719 34.4995 65.9719ZM79.4996 65.9719C76.7996 65.9719 72.7496 66.4205 72.7496 63.7289C72.7496 61.0373 76.7996 57 79.4996 57C82.1996 57 83.9996 58.7944 83.9996 61.4859C83.9996 64.1775 82.1996 65.9719 79.4996 65.9719Z" fill="#040463"/>
<path d="M100 35.5C100 29.3517 97.6884 23.4282 93.5239 18.9051C89.3594 14.382 83.6465 11.5901 77.5192 11.0833L77.253 14.3016C82.5728 14.7415 87.5326 17.1655 91.1482 21.0924C94.7638 25.0193 96.7707 30.1621 96.7707 35.5H100Z" fill="#040463"/>
<path d="M89 34.5C89 31.3631 87.8206 28.3409 85.6959 26.0332C83.5711 23.7255 80.6564 22.3011 77.5302 22.0425L77.3005 24.8201C79.7297 25.021 81.9945 26.1278 83.6455 27.921C85.2965 29.7142 86.213 32.0625 86.213 34.5H89Z" fill="#040463"/>
<path d="M110.811 39.1571C111.317 34.2716 110.804 29.3342 109.304 24.6572C107.803 19.9803 105.349 15.6655 102.096 11.9858C98.8424 8.30612 94.8609 5.34157 90.403 3.27964C85.9451 1.21772 81.1078 0.103293 76.1971 0.00684493L76.1317 3.33709C80.5816 3.42448 84.965 4.43435 89.0047 6.30281C93.0443 8.17127 96.6522 10.8577 99.6003 14.1921C102.548 17.5265 104.772 21.4365 106.132 25.6746C107.491 29.9127 107.956 34.3868 107.498 38.8139L110.811 39.1571Z" fill="#040463"/>
<path d="M19.3196 112.5H17.3835C17.2393 111.779 16.9785 111.113 16.6009 110.502C16.2301 109.884 15.7633 109.345 15.2003 108.885C14.6373 108.425 13.9988 108.068 13.2848 107.814C12.5708 107.56 11.7984 107.433 10.9677 107.433C9.63577 107.433 8.42057 107.78 7.32209 108.473C6.23047 109.167 5.35511 110.186 4.69602 111.532C4.0438 112.871 3.71768 114.512 3.71768 116.455C3.71768 118.411 4.0438 120.059 4.69602 121.398C5.35511 122.737 6.23047 123.753 7.32209 124.446C8.42057 125.133 9.63577 125.476 10.9677 125.476C11.7984 125.476 12.5708 125.349 13.2848 125.095C13.9988 124.841 14.6373 124.487 15.2003 124.034C15.7633 123.574 16.2301 123.035 16.6009 122.417C16.9785 121.799 17.2393 121.13 17.3835 120.409H19.3196C19.148 121.377 18.8253 122.28 18.3516 123.118C17.8847 123.948 17.2874 124.676 16.5597 125.301C15.8388 125.926 15.008 126.413 14.0675 126.763C13.1269 127.113 12.0936 127.288 10.9677 127.288C9.19638 127.288 7.62417 126.846 6.25107 125.96C4.87796 125.067 3.80007 123.811 3.0174 122.191C2.2416 120.57 1.85369 118.658 1.85369 116.455C1.85369 114.251 2.2416 112.339 3.0174 110.718C3.80007 109.098 4.87796 107.845 6.25107 106.96C7.62417 106.067 9.19638 105.621 10.9677 105.621C12.0936 105.621 13.1269 105.796 14.0675 106.146C15.008 106.489 15.8388 106.977 16.5597 107.608C17.2874 108.233 17.8847 108.961 18.3516 109.792C18.8253 110.622 19.148 111.525 19.3196 112.5ZM27.8801 127.36C26.9258 127.36 26.0538 127.175 25.2643 126.804C24.4748 126.427 23.8466 125.884 23.3797 125.177C22.9128 124.463 22.6794 123.598 22.6794 122.582C22.6794 121.799 22.827 121.14 23.1222 120.605C23.4175 120.069 23.8363 119.63 24.3786 119.287C24.921 118.943 25.5629 118.672 26.3044 118.473C27.0459 118.274 27.8629 118.119 28.7554 118.01C29.6411 117.9 30.3894 117.804 31.0004 117.721C31.6183 117.639 32.0886 117.508 32.4113 117.33C32.734 117.151 32.8953 116.863 32.8953 116.465V116.094C32.8953 115.016 32.5727 114.168 31.9273 113.55C31.2888 112.926 30.3688 112.613 29.1673 112.613C28.0277 112.613 27.0974 112.864 26.3765 113.365C25.6625 113.866 25.1613 114.457 24.873 115.136L23.1325 114.508C23.4896 113.643 23.9839 112.953 24.6155 112.438C25.2471 111.916 25.9543 111.542 26.7369 111.316C27.5196 111.082 28.3126 110.966 29.1159 110.966C29.72 110.966 30.3482 111.045 31.0004 111.202C31.6595 111.36 32.2706 111.635 32.8335 112.026C33.3965 112.411 33.8531 112.95 34.2032 113.643C34.5534 114.33 34.7284 115.202 34.7284 116.259V127H32.8953V124.498H32.782C32.5624 124.964 32.2362 125.417 31.8037 125.857C31.3712 126.296 30.8288 126.657 30.1766 126.938C29.5244 127.22 28.7588 127.36 27.8801 127.36ZM28.1272 125.682C29.1021 125.682 29.9466 125.466 30.6606 125.033C31.3746 124.6 31.9239 124.027 32.3083 123.313C32.6997 122.592 32.8953 121.799 32.8953 120.934V118.648C32.758 118.779 32.528 118.895 32.2053 118.998C31.8895 119.101 31.5222 119.194 31.1034 119.276C30.6915 119.352 30.2796 119.417 29.8676 119.472C29.4557 119.527 29.085 119.575 28.7554 119.616C27.8629 119.726 27.1008 119.898 26.4692 120.131C25.8376 120.364 25.3535 120.687 25.0171 121.099C24.6807 121.504 24.5125 122.026 24.5125 122.664C24.5125 123.626 24.8558 124.371 25.5423 124.899C26.2289 125.421 27.0905 125.682 28.1272 125.682ZM39.6047 127V111.182H41.3863V113.612H41.5202C41.836 112.816 42.3852 112.174 43.1679 111.686C43.9574 111.192 44.8499 110.945 45.8454 110.945C45.9965 110.945 46.1647 110.948 46.3501 110.955C46.5354 110.962 46.6899 110.969 46.8135 110.976V112.84C46.7311 112.826 46.5869 112.806 46.3809 112.778C46.175 112.751 45.9519 112.737 45.7116 112.737C44.8877 112.737 44.1531 112.912 43.5077 113.262C42.8692 113.605 42.3646 114.083 41.9939 114.694C41.6231 115.305 41.4378 116.001 41.4378 116.784V127H39.6047ZM49.5914 127.154C49.1864 127.154 48.8362 127.01 48.541 126.722C48.2527 126.427 48.1085 126.077 48.1085 125.672C48.1085 125.26 48.2527 124.909 48.541 124.621C48.8362 124.333 49.1864 124.189 49.5914 124.189C50.0034 124.189 50.3535 124.333 50.6419 124.621C50.9302 124.909 51.0744 125.26 51.0744 125.672C51.0744 125.939 51.0057 126.186 50.8684 126.413C50.738 126.64 50.5595 126.821 50.3329 126.959C50.1132 127.089 49.8661 127.154 49.5914 127.154ZM56.2982 127V105.909H63.1054C64.6021 105.909 65.8516 106.197 66.854 106.774C67.8632 107.344 68.6218 108.12 69.1299 109.102C69.6448 110.083 69.9023 111.189 69.9023 112.418C69.9023 113.647 69.6482 114.755 69.1402 115.744C68.6321 116.726 67.8769 117.505 66.8746 118.082C65.8722 118.652 64.6261 118.936 63.1363 118.936H57.7812V117.206H63.0848C64.1901 117.206 65.1067 117 65.8344 116.588C66.5622 116.17 67.1046 115.6 67.4616 114.879C67.8254 114.158 68.0074 113.338 68.0074 112.418C68.0074 111.498 67.8254 110.677 67.4616 109.956C67.1046 109.235 66.5587 108.669 65.8241 108.257C65.0964 107.845 64.173 107.639 63.0539 107.639H58.224V127H56.2982ZM78.4601 127.36C77.5058 127.36 76.6339 127.175 75.8444 126.804C75.0548 126.427 74.4266 125.884 73.9598 125.177C73.4929 124.463 73.2595 123.598 73.2595 122.582C73.2595 121.799 73.4071 121.14 73.7023 120.605C73.9975 120.069 74.4163 119.63 74.9587 119.287C75.5011 118.943 76.143 118.672 76.8845 118.473C77.626 118.274 78.443 118.119 79.3355 118.01C80.2211 117.9 80.9695 117.804 81.5805 117.721C82.1984 117.639 82.6687 117.508 82.9914 117.33C83.3141 117.151 83.4754 116.863 83.4754 116.465V116.094C83.4754 115.016 83.1527 114.168 82.5074 113.55C81.8689 112.926 80.9489 112.613 79.7474 112.613C78.6077 112.613 77.6775 112.864 76.9566 113.365C76.2426 113.866 75.7414 114.457 75.453 115.136L73.7126 114.508C74.0696 113.643 74.564 112.953 75.1956 112.438C75.8272 111.916 76.5344 111.542 77.317 111.316C78.0997 111.082 78.8927 110.966 79.6959 110.966C80.3001 110.966 80.9283 111.045 81.5805 111.202C82.2396 111.36 82.8506 111.635 83.4136 112.026C83.9766 112.411 84.4332 112.95 84.7833 113.643C85.1334 114.33 85.3085 115.202 85.3085 116.259V127H83.4754V124.498H83.3621C83.1424 124.964 82.8163 125.417 82.3838 125.857C81.9513 126.296 81.4089 126.657 80.7567 126.938C80.1044 127.22 79.3389 127.36 78.4601 127.36ZM78.7073 125.682C79.6822 125.682 80.5267 125.466 81.2407 125.033C81.9547 124.6 82.5039 124.027 82.8884 123.313C83.2797 122.592 83.4754 121.799 83.4754 120.934V118.648C83.3381 118.779 83.1081 118.895 82.7854 118.998C82.4696 119.101 82.1023 119.194 81.6835 119.276C81.2716 119.352 80.8596 119.417 80.4477 119.472C80.0358 119.527 79.665 119.575 79.3355 119.616C78.443 119.726 77.6809 119.898 77.0493 120.131C76.4176 120.364 75.9336 120.687 75.5972 121.099C75.2608 121.504 75.0926 122.026 75.0926 122.664C75.0926 123.626 75.4359 124.371 76.1224 124.899C76.809 125.421 77.6706 125.682 78.7073 125.682ZM90.1847 127V111.182H91.9664V113.612H92.1002C92.416 112.816 92.9653 112.174 93.748 111.686C94.5375 111.192 95.43 110.945 96.4255 110.945C96.5766 110.945 96.7448 110.948 96.9301 110.955C97.1155 110.962 97.27 110.969 97.3936 110.976V112.84C97.3112 112.826 97.167 112.806 96.961 112.778C96.7551 112.751 96.5319 112.737 96.2916 112.737C95.4678 112.737 94.7332 112.912 94.0878 113.262C93.4493 113.605 92.9447 114.083 92.574 114.694C92.2032 115.305 92.0178 116.001 92.0178 116.784V127H90.1847ZM102.19 121.027L102.169 118.627H102.581L109.996 111.182H112.313L104.991 118.514L104.826 118.545L102.19 121.027ZM100.522 127V105.909H102.355V127H100.522ZM110.377 127L103.951 118.875L105.269 117.608L112.725 127H110.377Z" fill="#040463"/>
</svg>
